<svg xmlns="http://www.w3.org/2000/svg" width="256" height="256" viewBox="0 0 256 256">
  <defs>
    <linearGradient id="a" x1="0.5" x2="0.5" y2="1">
      <stop offset="0" stop-color="#41D1FF"/>
      <stop offset="1" stop-color="#BD34FE"/>
    </linearGradient>
    <linearGradient id="b" x1="0.5" x2="0.5" y2="1">
      <stop offset="0" stop-color="#FFEA83"/>
      <stop offset="0.08" stop-color="#FFDD35"/>
      <stop offset="1" stop-color="#FFA800"/>
    </linearGradient>
  </defs>
  <path fill="url(#a)" d="M255.15 63.31L132.32 254.33c-2.07 3.1-6.49 3.1-8.56 0L1.05 63.31c-2.07-3.1 0-7.39 3.98-7.39h49.42c2.07 0 3.98 1.03 4.96 2.9l64.21 113.88l64.21-113.88c0.98-1.86 2.89-2.9 4.96-2.9h49.42c3.98 0 6.05 4.28 3.98 7.39z"/>
  <path fill="url(#b)" d="M180.53 0L54.7 213.56c-2.07 3.42 0.31 7.93 4.62 7.93h45.28c2.07 0 4.05-1.07 5.1-2.95l70.82-124.89l-25.96-45.72C153.19 46.5 149.2 45 145.02 45H97.6c-3.76 0-7.23 2.5-8.62 6.05L54.7 132.07l96.38-125.86C153.15 2.78 150.92 0 147.6 0h-49.4c-2.07 0-4.05 1.07-5.1 2.95L22.28 127.82l-6.19-10.89C13.82 113.2 10.36 111 6.6 111H2.4c-3.76 0-7.23 2.5-8.62 6.05l-6.19 10.89L0.98 111c-2.07-3.42 0.31-7.93 4.62-7.93h45.28c2.07 0 4.05 1.07 5.1 2.95l70.82-124.89l-25.96-45.72C101.42 46.5 97.43 45 93.25 45H45.83c-3.76 0-7.23 2.5-8.62 6.05L2.92 132.07l96.38-125.86c2.07-2.78-0.16-6.21-3.48-6.21h-49.4c-2.07 0-4.05 1.07-5.1 2.95L-25.54 127.82l-6.19-10.89c-2.07-3.42-5.53-5.49-9.29-5.49h-4.2c-3.76 0-7.23 2.5-8.62 6.05l-6.19 10.89L-78.02 111c-2.07-3.42 0.31-7.93 4.62-7.93h45.28c2.07 0 4.05 1.07 5.1 2.95L-7.84-16.94l-25.96-45.72C-35.27 46.5 -39.26 45 -43.44 45H-90.87c-3.76 0-7.23 2.5-8.62 6.05l-34.29 81.02l96.38-125.86c2.07-2.78-0.16-6.21-3.48-6.21h-49.4c-2.07 0-4.05 1.07-5.1 2.95L-152.4 127.82l-6.19-10.89c-2.07-3.42-5.53-5.49-9.29-5.49h-4.2c-3.76 0-7.23 2.5-8.62 6.05l-6.19 10.89l-12.38-16.89c-2.07-3.42 0.31-7.93 4.62-7.93h45.28c2.07 0 4.05 1.07 5.1 2.95l70.82-124.89l-25.96-45.72c-2.07-3.42-5.53-5.49-9.29-5.49h-4.2c-3.76 0-7.23 2.5-8.62 6.05l-6.19 10.89L54.7 0h125.83z"/>
</svg>
